<mxfile host="app.diagrams.net" modified="2023-07-19T15:35:49.744Z" agent="Mozilla/5.0 (Windows NT 10.0; Win64; x64) AppleWebKit/537.36 (KHTML, like Gecko) Chrome/114.0.0.0 Safari/537.36" version="21.6.3" etag="Qp1AtZ1YZ0PxBo-G1Avm" type="github">
  <diagram name="Page-1" id="Vzmpg39TOHGBxjY6n7R1">
    <mxGraphModel>
      <root>
        <mxCell id="0" />
        <mxCell id="1" parent="0" />
      </root>
    </mxGraphModel>
  </diagram>
</mxfile>
